HIERARCHY
ROOT Hips
{
	OFFSET -1.026148 111.334198 -0.270911
	CHANNELS 6 Xposition Yposition Zposition Xrotation Yrotation Zrotation
	JOINT Chest
	{
		OFFSET -0.876944 13.425896 2.265042
		CHANNELS 3 Xrotation Yrotation Zrotation
		JOINT Chest2
		{
			OFFSET -1.650049 21.260048 2.086672
			CHANNELS 3 Xrotation Yrotation Zrotation
			JOINT Chest3
			{
				OFFSET -0.096213 14.912308 0.658550
				CHANNELS 3 Xrotation Yrotation Zrotation
				JOINT Neck
				{
					OFFSET 0.768219 17.063965 2.616696
					CHANNELS 3 Xrotation Yrotation Zrotation
					JOINT Head
					{
						OFFSET -0.801281 10.332916 1.554524
						CHANNELS 3 Xrotation Yrotation Zrotation
						End Site
						{
							OFFSET -0.742196 10.343506 1.512845
						}
					}
				}
				JOINT LeftCollar
				{
					OFFSET 1.408418 12.292786 6.979126
					CHANNELS 3 Xrotation Yrotation Zrotation
					JOINT LeftUpArm
					{
						OFFSET 16.083151 -2.974457 6.401913
						CHANNELS 3 Xrotation Yrotation Zrotation
						JOINT LeftLowArm
						{
							OFFSET 12.952062 -10.756241 29.262188
							CHANNELS 3 Xrotation Yrotation Zrotation
							JOINT LeftHand
							{
								OFFSET 12.936344 -6.104919 26.388027
								CHANNELS 3 Xrotation Yrotation Zrotation
								End Site
								{
									OFFSET 2.827324 -1.334229 5.767258
								}
							}
						}
					}
				}
				JOINT RightCollar
				{
					OFFSET -4.397371 13.471100 1.000543
					CHANNELS 3 Xrotation Yrotation Zrotation
					JOINT RightUpArm
					{
						OFFSET -4.075680 3.003708 -16.818527
						CHANNELS 3 Xrotation Yrotation Zrotation
						JOINT RightLowArm
						{
							OFFSET -25.576891 6.870239 -20.936977
							CHANNELS 3 Xrotation Yrotation Zrotation
							JOINT RightHand
							{
								OFFSET -24.733608 9.540497 -14.077721
								CHANNELS 3 Xrotation Yrotation Zrotation
								End Site
								{
									OFFSET -5.405758 2.085220 -3.076824
								}
							}
						}
					}
				}
			}
		}
	}
	JOINT LeftUpLeg
	{
		OFFSET 6.957351 -0.755806 7.172390
		CHANNELS 3 Xrotation Yrotation Zrotation
		JOINT LeftLowLeg
		{
			OFFSET 6.936501 -46.842873 1.273052
			CHANNELS 3 Xrotation Yrotation Zrotation
			JOINT LeftFoot
			{
				OFFSET 6.996495 -43.113094 -9.637362
				CHANNELS 3 Xrotation Yrotation Zrotation
				JOINT LeftToe
				{
					OFFSET -6.502495 -21.326099 7.904099
					CHANNELS 3 Xrotation Yrotation Zrotation
					End Site
					{
						OFFSET -9.894441 -10.264362 18.875957
					}
				}
			}
		}
	}
	JOINT RightUpLeg
	{
		OFFSET -6.957340 0.755615 -7.172426
		CHANNELS 3 Xrotation Yrotation Zrotation
		JOINT RightLowLeg
		{
			OFFSET -2.202685 -46.701729 -7.622925
			CHANNELS 3 Xrotation Yrotation Zrotation
			JOINT RightFoot
			{
				OFFSET 3.175221 -43.217484 -11.079139
				CHANNELS 3 Xrotation Yrotation Zrotation
				JOINT RightToe
				{
					OFFSET -5.425032 -23.022501 0.300571
					CHANNELS 3 Xrotation Yrotation Zrotation
					End Site
					{
						OFFSET -14.793578 -15.159582 10.530586
					}
				}
			}
		}
	}
}
MOTION
Frames: 11
Frame Time: 0.033333
0.526894 105.593933 -1.111725 -5.810275 43.553767 5.054538 1.861750 -0.420752 1.288107 -4.219358 0.492122 -3.161881 1.905489 4.094235 7.129999 -0.699065 2.430122 -2.520736 -0.000000 0.000000 -0.000000 15.966342 2.055696 -11.259458 46.575576 -3.441004 -24.034100 13.481338 -24.874692 2.918632 -0.000006 -0.000001 0.000003 -17.615693 -2.486868 22.547916 -31.677584 -15.169736 40.584806 1.246447 10.839374 21.429080 -0.000005 -0.000004 -0.000001 6.776893 0.738212 -1.179948 -3.865726 3.244736 4.641752 -22.373808 -13.904804 -14.504303 -0.000004 0.000002 0.000001 -1.534333 -0.103552 1.897129 5.153990 -4.140810 6.183233 -28.037769 2.398813 -23.295091 -0.000002 0.000002 -0.000002 
0.527286 105.592438 -1.112554 -5.669762 43.240083 5.059717 2.068288 -0.415505 1.475558 -4.882651 0.676147 -4.040087 2.293846 4.200962 7.799399 -0.592622 2.314272 -2.504412 -0.000000 0.000002 -0.000000 15.858419 1.690263 -11.304859 46.567195 -3.203596 -24.328558 13.235076 -25.365176 2.757599 -0.000002 0.000004 -0.000001 -17.493923 -1.826275 22.715307 -31.951645 -15.865148 40.187009 1.377080 11.442149 21.463810 -0.000002 -0.000000 0.000001 6.668627 0.881047 -1.426629 -3.751043 3.362885 4.855153 -22.463340 -13.871128 -14.563920 -0.000003 0.000000 0.000001 -1.655509 -0.201867 1.680431 5.386274 -4.228437 6.270268 -28.275884 2.810169 -23.271035 -0.000008 0.000003 0.000003 
0.528698 105.584480 -1.108813 -5.304001 43.319894 4.986870 1.851725 -0.408373 1.340752 -4.757695 0.556423 -3.762008 2.222900 4.286680 7.575215 -0.837043 2.271358 -2.558887 -0.000000 -0.000001 -0.000000 15.797497 1.333189 -11.127194 46.627468 -3.212466 -24.238350 13.351576 -25.364369 2.928163 -0.000003 0.000000 0.000003 -17.614506 -2.455162 22.416423 -31.858072 -15.635066 40.329808 1.431218 11.441889 21.670227 0.000000 -0.000002 0.000001 6.463720 0.888670 -1.453992 -3.735640 3.337271 4.821043 -22.485748 -13.894620 -14.637416 -0.000003 0.000000 -0.000000 -1.644089 -0.232918 1.841888 5.051589 -4.163290 5.896527 -28.165588 2.741616 -23.115286 -0.000003 0.000001 -0.000000 
0.528923 105.577721 -1.108842 -5.602437 43.360629 5.005333 2.325467 -0.439495 1.773762 -5.247768 0.635705 -4.154509 2.488607 3.979721 7.702152 -1.015326 2.334659 -2.675526 0.000001 0.000005 0.000001 15.808142 1.615683 -11.131504 46.682854 -3.626225 -24.102547 13.259313 -24.975700 3.210865 -0.000002 0.000005 -0.000000 -17.526499 -2.099689 22.765582 -31.721215 -15.347741 40.607298 1.740903 11.395768 21.479567 0.000002 0.000004 0.000001 6.632374 0.847443 -1.246873 -3.761922 3.403299 4.697471 -22.400601 -13.832655 -14.477110 -0.000004 0.000000 -0.000001 -1.338409 -0.225314 2.125473 5.003574 -4.176925 5.829123 -28.286286 2.867159 -23.150407 -0.000001 0.000002 -0.000002 
0.527289 105.568413 -1.106384 -5.349202 43.401645 5.076517 1.865284 -0.391892 1.239802 -4.972588 0.527813 -3.739123 2.448575 3.965023 7.494014 -1.073635 2.166092 -2.460378 -0.000001 0.000000 0.000000 15.900224 1.315412 -11.147793 46.526047 -3.666341 -24.001363 13.198118 -25.001979 3.075081 -0.000001 -0.000001 -0.000000 -17.692572 -2.444439 22.634771 -31.714494 -15.182245 40.628660 1.592974 11.100616 21.331946 -0.000002 -0.000003 -0.000002 6.421460 0.748688 -1.516748 -3.621901 3.406538 4.826624 -22.394583 -13.775877 -14.352391 -0.000004 -0.000002 -0.000001 -1.565289 -0.142637 1.843351 5.110473 -4.211845 5.996809 -28.184045 2.779284 -23.072271 -0.000004 0.000000 0.000002 
0.524992 105.560059 -1.102703 -5.361465 43.403441 5.117748 1.904979 -0.393469 1.229865 -4.748949 0.532574 -3.521062 2.256018 4.017180 7.319816 -1.104948 2.002404 -2.137005 0.000000 -0.000001 -0.000000 16.071946 1.216193 -11.124252 46.405965 -3.889280 -23.881780 13.263379 -24.463794 3.015278 -0.000001 0.000004 -0.000003 -17.918617 -3.083395 22.434837 -31.426428 -15.391445 40.543023 1.484673 11.720950 21.229242 -0.000000 -0.000001 -0.000001 6.414083 0.679494 -1.550194 -3.548132 3.278107 4.843127 -22.301020 -13.670735 -14.190579 -0.000003 -0.000000 -0.000001 -1.457075 -0.105026 1.894047 4.972867 -4.205960 6.020227 -28.386480 2.838675 -23.246846 -0.000003 0.000006 -0.000002 
0.521097 105.549789 -1.096980 -5.474687 43.382213 5.070516 2.251208 -0.434110 1.598877 -5.433617 0.567346 -4.063606 2.731858 3.678837 7.596118 -1.009318 2.065081 -2.117411 -0.000000 0.000000 0.000000 16.145993 1.776783 -11.358777 46.321704 -3.895073 -23.836674 13.220391 -24.484336 2.874613 -0.000003 0.000003 0.000001 -17.809802 -2.636433 22.666842 -31.463915 -15.503730 40.607910 1.683375 11.946067 20.876060 -0.000000 -0.000001 -0.000000 6.502903 0.654680 -1.381423 -3.470445 3.270362 4.793618 -22.589497 -13.580100 -14.229745 -0.000004 -0.000002 -0.000000 -1.261698 -0.128198 2.138558 4.820998 -4.205854 5.846802 -28.368040 2.748410 -23.320431 -0.000004 0.000004 -0.000000 
0.510985 105.536301 -1.081301 -5.202427 43.002547 4.996175 1.928435 -0.385815 1.220859 -4.631692 0.465184 -3.285334 2.279122 3.755929 7.220713 -1.069390 2.007757 -2.178713 0.000000 0.000004 0.000000 16.055451 1.349480 -11.295846 46.524059 -3.758760 -23.987254 12.798696 -24.949954 3.011678 -0.000001 0.000005 0.000000 -17.964031 -3.001181 22.421185 -31.463328 -16.360504 40.300828 1.919609 13.021957 20.790659 0.000001 0.000003 0.000003 6.549456 0.612519 -1.354671 -3.553109 3.335528 4.786280 -22.414943 -13.501802 -14.100867 -0.000000 -0.000002 -0.000002 -1.153189 -0.121405 2.292054 4.618177 -4.258561 5.565586 -28.332403 3.073300 -22.993567 -0.000003 0.000004 -0.000000 
0.493775 105.523064 -1.067010 -5.343709 42.660545 4.922231 1.792088 -0.361257 1.024721 -4.198993 0.306703 -2.669214 2.132717 3.522174 6.751357 -0.985029 1.966612 -2.016996 0.000000 0.000002 0.000001 16.172496 1.750754 -11.350494 46.541220 -3.717256 -23.822836 12.725332 -25.121110 3.336145 -0.000003 0.000001 0.000003 -17.849654 -2.960861 22.562842 -31.481011 -16.566846 40.532330 2.566481 13.516583 20.366637 0.000000 -0.000005 -0.000000 6.802671 0.665183 -1.074875 -3.621041 3.413167 4.595327 -22.391810 -13.161913 -13.826448 -0.000004 0.000002 0.000000 -1.214893 -0.139455 2.311475 5.040844 -4.242459 5.867826 -28.368112 3.442942 -22.762748 -0.000002 0.000001 -0.000000 
0.471915 105.502251 -1.049907 -4.843907 42.820392 4.875377 1.380748 -0.323091 0.655527 -4.381763 0.301765 -2.807466 2.400076 3.201756 6.919747 -1.378904 1.921590 -2.209160 -0.000001 0.000002 0.000000 16.012380 1.851361 -11.153030 46.775516 -3.787792 -23.871675 12.786258 -25.211152 3.644644 0.000002 0.000002 -0.000000 -17.708290 -2.755351 22.625763 -31.560484 -17.187778 40.566362 3.202701 13.943481 19.904370 0.000000 -0.000005 -0.000001 6.307831 0.670886 -1.302326 -3.343173 3.455227 4.810631 -22.297953 -13.270653 -13.834336 -0.000001 -0.000000 0.000000 -1.619480 -0.177516 2.207060 5.119816 -4.348990 5.820676 -28.258960 3.255113 -22.886511 -0.000001 0.000001 -0.000000 
0.442277 105.488663 -1.035057 -4.946084 42.613154 4.699413 0.931774 -0.290443 0.333489 -3.073881 0.082441 -1.492608 1.537880 3.427824 6.041262 -1.263685 1.662483 -1.785514 0.000000 0.000004 0.000001 15.843611 1.770119 -11.119851 46.922498 -3.653937 -24.154844 12.772645 -24.635254 3.429557 -0.000000 0.000003 0.000002 -17.904952 -3.163134 22.315066 -31.809475 -17.312730 40.457789 3.147129 13.553882 19.372723 -0.000000 -0.000005 -0.000001 6.323638 0.654537 -0.997512 -3.276109 3.432480 4.674003 -22.241468 -13.057916 -13.704851 -0.000004 0.000000 0.000001 -1.322428 -0.261092 2.704259 4.795095 -4.229800 5.542807 -28.167451 3.386983 -22.550959 0.000000 0.000006 0.000002 
